<svg id="Layer_1" xmlns="http://www.w3.org/2000/svg" viewBox="0 0 450 334.2"><style>.st0{fill:#ebcba8}.st1{fill:#e6c095}.st2{fill:#b98d6a}.st3{fill:#64371b}.st4{fill:#c49a6c}.st5{fill:#d3aa76}.st6{fill:#8b5e3c}.st7{fill:#b98d6a;stroke:#64371b;stroke-width:2.3614;stroke-miterlimit:10}.st8{fill:#603913}.st9{fill:none;stroke:#64371b;stroke-width:2.3614;stroke-miterlimit:10}.st10{fill:#7d5134}.st11{fill:#754c29}.st12{fill:#a97c50}.st13{fill:#d1d3d4}.st14{fill:#6d6e71}.st15{fill:#a7a9ac}.st16{fill:#e6e7e8}.st17{fill:#e0b280}.st18,.st19{fill:none;stroke:#754c29;stroke-width:2.25;stroke-miterlimit:10}.st19{stroke-width:2}.st20{opacity:.57;fill:#c49a6c}.st21{fill:#d59957}.st22{opacity:.5}.st23{fill:#ebbb85}.st24{fill:#e09641}.st25,.st26{opacity:.4;fill:#ffcd7e}.st26{fill:#ebbb85}.st27{fill:#8d6019}.st28{fill:#d88219}.st29{fill:#e6aa67}.st30{fill:#c27514}.st31{fill:#9c7235}.st32{fill:#ba9767}.st33{fill:#ac854f}</style><path class="st8" d="M16.8 316.7l6.2-1.8c.8 7.9 7.2 11.6 14.2 11.6 7 0 11.9-3.4 11.9-10.5 0-15.3-28.3-11.1-28.3-29 0-9 7.2-14.9 16-14.9 6.9 0 12.7 2.9 16.4 9.2l-5 3.3c-2.4-4.6-6.8-6.8-11.4-6.8-4.9 0-9.5 3.3-9.5 8.6 0 14.5 28.3 10.1 28.3 29.1 0 10.4-7.9 17-18.4 17-9.6 0-18.7-5.2-20.4-15.8zM108 278.4H88.1v-5.5h46.4v5.5h-19.8v53.4H108v-53.4zM170.7 310.2v-37.3h6.6v35.4c0 10.2 3.2 18 13.9 18s14-7.9 14-18v-35.4h6.6v36.9c0 12.3-6 22.8-20.6 22.8-14.7.1-20.5-10.5-20.5-22.4zM254 272.9h15c19.1 0 29.7 10.5 29.7 29.9 0 18.5-10.8 29-29.8 29H254v-58.9zm14 52.9c13.7 0 24.2-7.2 24.2-23.4 0-15.2-7.7-23.5-23.3-23.5h-8.2v46.9h7.3zM338.5 272.9h6.6v58.9h-6.6v-58.9zM385 302.4c0-16.3 8.5-30.3 26.4-30.3 18 0 26.5 14 26.5 30.3s-8.5 30.3-26.5 30.3c-17.9 0-26.4-14-26.4-30.3zm46.5 0c0-12.6-5.8-24.2-20.1-24.2-14.2 0-19.9 11.6-19.9 24.2s5.8 24.2 19.9 24.2c14.3 0 20.1-11.6 20.1-24.2z"/><path class="st11" d="M443 35c-2.7-6.3-6.5-11.5-11.6-15.7-5.1-4.2-11.3-7.4-18.6-9.5-7.4-2.1-15.7-3.2-25.2-3.2h-27.8v100.2h27.8c9.4 0 17.8-1.1 25.2-3.2 7.4-2.2 13.6-5.3 18.6-9.5 5.1-4.2 8.9-9.4 11.6-15.7 2.7-6.3 4-13.5 4-21.7s-1.3-15.4-4-21.7zm-33.7 38c-4.1 3.6-9.9 5.3-17.4 5.3v-43c7.5 0 13.3 1.8 17.4 5.3 4.1 3.5 6.2 8.9 6.2 16.2 0 7.3-2.1 12.7-6.2 16.2zM0 6.4h33.9l11.6 35 11.6-35H79l11.6 35 11.5-35h34L103 106.6H78.1L68 76.2l-10 30.4H33zM344.7 36c-2.8-6.4-6.5-12-11.3-16.7-4.8-4.8-10.3-8.5-16.7-11.3-6.4-2.8-13.2-4.1-20.4-4.1-7.2 0-14 1.4-20.4 4.1-6.4 2.8-12 6.5-16.7 11.3-4.8 4.8-8.5 10.3-11.3 16.7-2.8 6.4-4.1 13.2-4.1 20.4 0 7.2 1.4 14 4.1 20.4 2.8 6.4 6.5 12 11.3 16.7 4.8 4.8 10.3 8.5 16.7 11.3 6.4 2.8 13.2 4.1 20.4 4.1 7.2 0 14-1.4 20.4-4.1 6.4-2.8 12-6.5 16.7-11.3 4.8-4.8 8.5-10.3 11.3-16.7 2.8-6.4 4.1-13.2 4.1-20.4 0-7.2-1.3-14-4.1-20.4zm-29 28.6c-1.1 2.6-2.6 4.8-4.5 6.7-1.9 1.9-4.1 3.4-6.7 4.5-2.6 1.1-5.3 1.7-8.2 1.7s-5.6-.5-8.2-1.7c-2.6-1.1-4.8-2.6-6.7-4.5-1.9-1.9-3.4-4.1-4.5-6.7-1.1-2.6-1.7-5.3-1.7-8.2 0-2.9.5-5.6 1.7-8.2 1.1-2.6 2.6-4.8 4.5-6.7 1.9-1.9 4.1-3.4 6.7-4.5s5.3-1.7 8.2-1.7 5.6.6 8.2 1.7 4.8 2.6 6.7 4.5c1.9 1.9 3.4 4.1 4.5 6.7 1.1 2.6 1.7 5.3 1.7 8.2-.1 3-.6 5.7-1.7 8.2zM233.6 36c-2.8-6.4-6.5-12-11.3-16.7-4.8-4.8-10.3-8.5-16.7-11.3-6.4-2.8-13.2-4.1-20.4-4.1-7.2 0-14 1.4-20.4 4.1-6.4 2.8-12 6.5-16.7 11.3-4.8 4.8-8.5 10.3-11.3 16.7-2.8 6.4-4.1 13.2-4.1 20.4 0 7.2 1.4 14 4.1 20.4 2.8 6.4 6.5 12 11.3 16.7 4.8 4.8 10.3 8.5 16.7 11.3 6.4 2.8 13.2 4.1 20.4 4.1 7.2 0 14-1.4 20.4-4.1 6.4-2.8 12-6.5 16.7-11.3 4.8-4.8 8.5-10.3 11.3-16.7 2.8-6.4 4.1-13.2 4.1-20.4 0-7.2-1.4-14-4.1-20.4zm-29.1 28.6c-1.1 2.6-2.6 4.8-4.5 6.7-1.9 1.9-4.1 3.4-6.7 4.5-2.6 1.1-5.3 1.7-8.2 1.7s-5.6-.5-8.2-1.7c-2.6-1.1-4.8-2.6-6.7-4.5-1.9-1.9-3.4-4.1-4.5-6.7-1.1-2.6-1.7-5.3-1.7-8.2 0-2.9.5-5.6 1.7-8.2 1.1-2.6 2.6-4.8 4.5-6.7 1.9-1.9 4.1-3.4 6.7-4.5s5.3-1.7 8.2-1.7 5.6.6 8.2 1.7c2.6 1.1 4.8 2.6 6.7 4.5 1.9 1.9 3.4 4.1 4.5 6.7 1.1 2.6 1.7 5.3 1.7 8.2-.1 3-.6 5.7-1.7 8.2z"/><path class="st24" d="M446 30.9c-2.7-6.3-6.5-11.5-11.6-15.7-5.1-4.2-11.3-7.4-18.6-9.5-7.4-2.1-15.7-3.2-25.2-3.2h-27.8v100.2h27.8c9.4 0 17.8-1.1 25.2-3.2 7.4-2.2 13.6-5.3 18.6-9.5 5.1-4.2 8.9-9.4 11.6-15.7 2.7-6.3 4-13.5 4-21.7s-1.3-15.4-4-21.7zm-33.7 38c-4.1 3.6-9.9 5.3-17.4 5.3v-43c7.5 0 13.3 1.8 17.4 5.3 4.1 3.5 6.2 8.9 6.2 16.2 0 7.3-2.1 12.7-6.2 16.2zM3.8 2.5h34l11.5 35 11.6-35h21.9l11.6 35 11.6-35h33.9l-33 100.2h-25l-10-30.3-10.1 30.3H36.9zM237.4 32.3c-2.8-6.4-6.5-12-11.3-16.7-4.8-4.8-10.3-8.5-16.7-11.3C203 1.5 196.2.2 189 .2c-7.2 0-14 1.4-20.4 4.1-6.4 2.8-12 6.5-16.7 11.3-4.8 4.8-8.5 10.3-11.3 16.7-2.8 6.4-4.1 13.2-4.1 20.4 0 7.2 1.4 14 4.1 20.4 2.8 6.4 6.5 12 11.3 16.7 4.8 4.8 10.3 8.5 16.7 11.3 6.4 2.8 13.2 4.1 20.4 4.1 7.2 0 14-1.4 20.4-4.1 6.4-2.8 12-6.5 16.7-11.3 4.8-4.8 8.5-10.3 11.3-16.7 2.8-6.4 4.1-13.2 4.1-20.4 0-7.2-1.4-14-4.1-20.4zm-29.1 28.6c-1.1 2.6-2.6 4.8-4.5 6.7-1.9 1.9-4.1 3.4-6.7 4.5-2.6 1.1-5.3 1.7-8.2 1.7s-5.6-.5-8.2-1.7c-2.6-1.1-4.8-2.6-6.7-4.5-1.9-1.9-3.4-4.1-4.5-6.7-1.1-2.6-1.7-5.3-1.7-8.2 0-2.9.5-5.6 1.7-8.2 1.1-2.6 2.6-4.8 4.5-6.7 1.9-1.9 4.1-3.4 6.7-4.5s5.3-1.7 8.2-1.7 5.6.6 8.2 1.7c2.6 1.1 4.8 2.6 6.7 4.5 1.9 1.9 3.4 4.1 4.5 6.7 1.1 2.6 1.7 5.3 1.7 8.2 0 2.9-.6 5.7-1.7 8.2zM348.5 32.1c-2.8-6.4-6.5-12-11.3-16.7-4.8-4.8-10.3-8.5-16.7-11.3-6.4-2.7-13.2-4.1-20.4-4.1-7.2 0-14 1.4-20.4 4.1-6.4 2.8-12 6.5-16.7 11.3-4.8 4.8-8.5 10.3-11.3 16.7-2.8 6.4-4.1 13.2-4.1 20.4 0 7.2 1.4 14 4.1 20.4 2.8 6.4 6.5 12 11.3 16.7 4.8 4.8 10.3 8.5 16.7 11.3 6.4 2.8 13.2 4.1 20.4 4.1 7.2 0 14-1.4 20.4-4.1 6.4-2.8 12-6.5 16.7-11.3 4.8-4.8 8.5-10.3 11.3-16.7 2.8-6.4 4.1-13.2 4.1-20.4.1-7.1-1.3-13.9-4.1-20.4zm-29 28.7c-1.1 2.6-2.6 4.8-4.5 6.7-1.9 1.9-4.1 3.4-6.7 4.5-2.6 1.1-5.3 1.7-8.2 1.7-2.9 0-5.6-.5-8.2-1.7-2.6-1.1-4.8-2.6-6.7-4.5-1.9-1.9-3.4-4.1-4.5-6.7-1.1-2.6-1.7-5.3-1.7-8.2 0-2.9.5-5.6 1.7-8.2 1.1-2.6 2.6-4.8 4.5-6.7 1.9-1.9 4.1-3.4 6.7-4.5 2.6-1.1 5.3-1.7 8.2-1.7 2.9 0 5.6.6 8.2 1.7s4.8 2.6 6.7 4.5c1.9 1.9 3.4 4.1 4.5 6.7 1.1 2.6 1.7 5.3 1.7 8.2-.1 2.9-.6 5.6-1.7 8.2z"/><path class="st6" d="M91.5 90.7L71.9 29.2 52.2 90.7l-4.4-.1-25.1-75.9 4.5-.2 22.8 69 21.9-68.3 21.8 68.4 22.6-69.1 4.5.1-24.9 76.1zM396.3 92h-20V13.5h20c6.2 0 11.9.8 16.8 2.4 5 1.7 9.3 4.2 12.8 7.5s6.2 7.5 8 12.4c1.8 4.9 2.7 10.5 2.7 16.8 0 6.3-.9 12-2.7 16.8-1.8 4.9-4.5 9.1-8 12.4-3.5 3.3-7.8 5.9-12.8 7.6-4.9 1.7-10.5 2.6-16.8 2.6zm-15.7-4.3h15.7c5.8 0 11-.8 15.5-2.3 4.4-1.5 8.2-3.7 11.2-6.6 3-2.9 5.3-6.5 6.9-10.8 1.6-4.4 2.4-9.5 2.4-15.3 0-5.8-.8-11-2.4-15.3-1.6-4.3-3.9-7.9-6.9-10.8-3-2.9-6.8-5.1-11.2-6.5-4.5-1.5-9.7-2.2-15.5-2.2h-15.7v69.8zM188.6 92.8c-22.2 0-40.2-18.1-40.2-40.2s18.1-40.2 40.2-40.2 40.2 18.1 40.2 40.2-18 40.2-40.2 40.2zm0-76.2c-19.8 0-36 16.1-36 36s16.1 36 36 36 36-16.1 36-36-16.2-36-36-36zM299.7 92.7c-22.2 0-40.2-18.1-40.2-40.2s18.1-40.2 40.2-40.2S340 30.2 340 52.4s-18.1 40.3-40.3 40.3zm0-76.2c-19.8 0-36 16.1-36 36s16.1 36 36 36c19.8 0 36-16.1 36-36s-16.1-36-36-36z"/><path class="st25" d="M446 30.9c-2.7-6.3-6.5-11.5-11.6-15.7-5.1-4.2-11.3-7.4-18.6-9.5-7.4-2.1-15.7-3.2-25.2-3.2h-27.8v49.6h87.1c.1-7.9-1.3-15-3.9-21.2zm-51.1 21.4V31.2c7.5 0 13.3 1.8 17.4 5.3 4 3.4 6.1 8.7 6.2 15.8h-23.6zM3.8 2.5h34l11.5 35 11.6-35h21.9l11.6 35 11.6-35h33.9l-16.4 49.8H20.2zM237.4 32.3c-2.8-6.4-6.5-12-11.3-16.7-4.8-4.8-10.3-8.5-16.7-11.3C203 1.5 196.2.2 189 .2c-7.2 0-14 1.4-20.4 4.1-6.4 2.8-12 6.5-16.7 11.3-4.8 4.8-8.5 10.3-11.3 16.7-2.7 6.3-4.1 12.9-4.1 20h105.1c-.2-7.1-1.5-13.7-4.2-20zm-69.5 20c.1-2.7.6-5.3 1.6-7.7 1.1-2.6 2.6-4.8 4.5-6.7 1.9-1.9 4.1-3.4 6.7-4.5s5.3-1.7 8.2-1.7 5.6.6 8.2 1.7c2.6 1.1 4.8 2.6 6.7 4.5 1.9 1.9 3.4 4.1 4.5 6.7 1 2.4 1.6 5 1.6 7.7h-42zM348.2 32.3c-2.8-6.4-6.5-12-11.3-16.7-4.8-4.8-10.3-8.5-16.7-11.3C313.8 1.5 307 .2 299.8.2c-7.2 0-14 1.4-20.4 4.1-6.4 2.8-12 6.5-16.7 11.3-4.8 4.8-8.5 10.3-11.3 16.7-2.7 6.3-4.1 12.9-4.1 20h105.1c-.2-7.1-1.5-13.7-4.2-20zm-69.5 20c.1-2.7.6-5.3 1.6-7.7 1.1-2.6 2.6-4.8 4.5-6.7 1.9-1.9 4.1-3.4 6.7-4.5s5.3-1.7 8.2-1.7c2.9 0 5.6.6 8.2 1.7 2.6 1.1 4.8 2.6 6.7 4.5 1.9 1.9 3.4 4.1 4.5 6.7 1 2.4 1.6 5 1.6 7.7h-42z"/><path class="st11" d="M18.8 131.2h34v36.3h19.1v-36.3H106v106.6H71.9v-39.5H52.8v39.5h-34zM134.4 131.2h62.7v28h-28.7V171h28.3v26.5h-28.3v12.3h29.9v28h-63.9zM284.5 131.2h-25.6l-40.4 106.5H252l3.5-9.6h32.3l3.5 9.6h33.5l-40.3-106.5zm-20 73.5l7.2-18.7 7.2 18.7h-14.4zM432.8 161.3c-2.8-6.7-6.9-12.2-12.3-16.7s-12-7.8-19.8-10.1c-7.8-2.2-16.7-3.4-26.8-3.4h-29.5v106.5h29.5c10 0 18.9-1.1 26.8-3.4 7.8-2.3 14.4-5.7 19.8-10.1 5.4-4.5 9.5-10 12.3-16.7 2.8-6.7 4.2-14.3 4.2-23.1 0-8.6-1.4-16.3-4.2-23zm-35.9 40.4c-4.4 3.8-10.5 5.7-18.5 5.7v-45.8c8 0 14.2 1.9 18.5 5.6 4.4 3.7 6.5 9.5 6.5 17.2.1 7.8-2.1 13.6-6.5 17.3z"/><path class="st24" d="M22.6 126.9h34v36.2h19v-36.2h34.2v106.5H75.6V194h-19v39.4h-34zM138.1 126.8h62.8v27.9h-28.7v11.9h28.2v26.5h-28.2v12.3H202v27.9h-63.9zM288.3 126.6h-25.6l-40.4 106.5h33.5l3.5-9.6h32.3l3.5 9.6h33.5l-40.3-106.5zm-20 73.5l7.2-18.7 7.2 18.7h-14.4zM436.6 157c-2.8-6.7-6.9-12.2-12.3-16.7s-12-7.8-19.8-10.1c-7.8-2.2-16.7-3.4-26.8-3.4h-29.5v106.5h29.5c10 0 18.9-1.1 26.8-3.4 7.8-2.3 14.4-5.7 19.8-10.1 5.4-4.5 9.5-10 12.3-16.7 2.8-6.7 4.2-14.3 4.2-23.1 0-8.7-1.4-16.4-4.2-23zm-35.9 40.4c-4.4 3.8-10.5 5.7-18.5 5.7v-45.8c8 0 14.2 1.9 18.5 5.6 4.4 3.7 6.5 9.5 6.5 17.2 0 7.7-2.1 13.5-6.5 17.3z"/><path class="st6" d="M305.1 220.4h4.9l-32.8-80.9-4.9-.1-31.5 80.9 4.9.1 2.9-7.5H302l3.1 7.5zm-54.7-11.9l24.4-62.7 25.4 62.7h-49.8zM382.9 221.9h-21.3v-83.5h21.3c6.6 0 12.7.9 17.9 2.6 5.3 1.8 9.9 4.4 13.6 8 3.7 3.5 6.5 8 8.5 13.2 1.9 5.2 2.9 11.2 2.9 17.9 0 6.7-1 12.7-2.9 17.9-1.9 5.2-4.8 9.7-8.5 13.2s-8.2 6.2-13.6 8c-5.2 1.8-11.2 2.7-17.9 2.7zm-16.7-4.6h16.7c6.2 0 11.7-.8 16.5-2.4 4.7-1.6 8.7-3.9 11.9-7 3.2-3.1 5.7-6.9 7.3-11.5 1.7-4.7 2.6-10.1 2.6-16.3 0-6.2-.9-11.7-2.6-16.3-1.7-4.6-4.2-8.4-7.3-11.5-3.2-3.1-7.2-5.4-11.9-6.9-4.8-1.6-10.3-2.4-16.5-2.4h-16.7v74.3zM190.2 143.8v-4.6h-35.7v.3h-.5v81.3h.3v.3H190v-4.6h-31.4v-34.4H190v-4.6h-31.4v-33.7zM89.5 140.5v36.8H42.6v-36.8h-4v81.4h4v-40h46.9v40h4.6v-81.4z"/><path class="st25" d="M22.6 126.9h34v36.2h19v-36.2h34.2v52.8H22.6zM138.1 126.8h62.8v27.9h-28.7v11.9h28.2v13.1h-62.3zM288.3 126.6h-25.6l-20.1 53.1h65.8l-20.1-53.1zM436.6 157c-2.8-6.7-6.9-12.2-12.3-16.7s-12-7.8-19.8-10.1c-7.8-2.2-16.7-3.4-26.8-3.4h-29.5v52.8h92.6c-.1-8.5-1.5-16.1-4.2-22.6zm-54.4 22.7v-22.4c8 0 14.2 1.9 18.5 5.6 4.3 3.7 6.5 9.3 6.5 16.8h-25z"/></svg>