<svg id="Layer_1" xmlns="http://www.w3.org/2000/svg" viewBox="0 0 1300 99.7"><style>.st0{fill:#ebcba8}.st1{fill:#e6c095}.st2{fill:#b98d6a}.st3{fill:#64371b}.st4{fill:#c49a6c}.st5{fill:#d3aa76}.st6{fill:#8b5e3c}.st7{fill:#b98d6a;stroke:#64371b;stroke-width:2.3614;stroke-miterlimit:10}.st8{fill:#603913}.st9{fill:none;stroke:#64371b;stroke-width:2.3614;stroke-miterlimit:10}.st10{fill:#7d5134}.st11{fill:#754c29}.st12{fill:#a97c50}.st13{fill:#d1d3d4}.st14{fill:#6d6e71}.st15{fill:#a7a9ac}.st16{fill:#e6e7e8}.st17{fill:#e0b280}.st18,.st19{fill:none;stroke:#754c29;stroke-width:2.25;stroke-miterlimit:10}.st19{stroke-width:2}.st20{opacity:.57;fill:#c49a6c}.st21{fill:#e09641}.st22{opacity:.4}.st23,.st24{fill:#ffcd7e}.st24{opacity:.4}.st25{fill:#d59957}.st26{opacity:.4;fill:#ebbb85}.st27{fill:#8d6019}.st28{fill:#d88219}.st29{fill:#e6aa67}.st30{fill:#c27514}.st31{fill:#9c7235}.st32{fill:#ba9767}.st33{fill:#ac854f}</style><path class="st8" d="M780.5 75.1l9.6-2.8c1.3 12.1 11.1 17.9 21.8 17.9 10.9 0 18.3-5.2 18.3-16.3 0-23.6-43.7-17.2-43.7-44.7 0-13.9 11.1-23 24.6-23 10.7 0 19.6 4.5 25.3 14.1l-7.7 5.1c-3.7-7.1-10.4-10.5-17.6-10.5-7.6 0-14.6 5-14.6 13.3 0 22.4 43.7 15.5 43.7 44.9 0 16-12.2 26.2-28.3 26.2-14.9.1-28.9-7.9-31.4-24.2zM894.8 16h-30.6V7.6h71.6V16h-30.6v82.4h-10.3V16zM965.1 65.1V7.6h10.2v54.6c0 15.7 4.9 27.8 21.4 27.8s21.6-12.1 21.6-27.8V7.6h10.2v56.9c0 18.9-9.3 35.2-31.8 35.2s-31.6-16.3-31.6-34.6zM1067.2 7.6h23.1c29.5 0 45.8 16.3 45.8 46.1 0 28.6-16.6 44.7-45.9 44.7h-23V7.6zm21.5 81.5c21.1 0 37.3-11.1 37.3-36.1 0-23.5-11.9-36.2-35.9-36.2h-12.7v72.3h11.3zM1171.1 7.6h10.2v90.8h-10.2V7.6zM1216.5 53c0-25.1 13-46.7 40.7-46.7 27.8 0 40.9 21.6 40.9 46.7 0 25.2-13.1 46.7-40.9 46.7-27.6 0-40.7-21.5-40.7-46.7zm71.7 0c0-19.4-8.9-37.3-31-37.3-21.8 0-30.7 17.9-30.7 37.3 0 19.5 8.9 37.3 30.7 37.3 22.1 0 31-17.9 31-37.3z"/><g><path class="st11" d="M408 32.7c-2.4-5.7-5.9-10.5-10.6-14.3-4.6-3.8-10.3-6.7-17-8.6-6.7-1.9-14.4-2.9-23-2.9H332v91.5h25.4c8.6 0 16.2-1 23-2.9 6.7-2 12.4-4.9 17-8.7 4.6-3.8 8.1-8.6 10.6-14.3 2.4-5.7 3.6-12.3 3.6-19.8 0-7.7-1.2-14.3-3.6-20zm-30.8 34.7c-3.7 3.2-9.1 4.9-15.9 4.9V32.9c6.9 0 12.2 1.6 15.9 4.8 3.7 3.2 5.6 8.1 5.6 14.8 0 6.7-1.9 11.6-5.6 14.9zM422.6 6.8h29.2V38h16.3V6.8h29.3v91.5h-29.3V64.4h-16.3v33.9h-29.2zM513.9 6.8h53.9v24h-24.7V41h24.3v22.7h-24.3v10.6h25.6v24h-54.8zM632.9 6.8H611l-34.7 91.5h28.8l3-8.2h27.7l3 8.2h28.8L632.9 6.8zm-17.1 63.1l6.2-16 6.2 16h-12.4zM752.4 32.7c-2.4-5.7-5.9-10.5-10.6-14.3-4.6-3.8-10.3-6.7-17-8.6-6.7-1.9-14.4-2.9-23-2.9h-25.4v91.5h25.4c8.6 0 16.2-1 23-2.9 6.7-2 12.4-4.9 17-8.7 4.6-3.8 8.1-8.6 10.6-14.3 2.4-5.7 3.6-12.3 3.6-19.8 0-7.7-1.2-14.3-3.6-20zm-30.8 34.7c-3.7 3.2-9.1 4.9-15.9 4.9V32.9c6.9 0 12.2 1.6 15.9 4.8 3.7 3.2 5.6 8.1 5.6 14.8 0 6.7-1.9 11.6-5.6 14.9zM3.5 6.5h31l10.6 32 10.5-32h20.1l10.5 32 10.6-32h31L97.6 98H74.8l-9.1-27.7L56.5 98H33.7zM318.2 33.6c-2.5-5.8-5.9-10.9-10.3-15.3-4.3-4.3-9.4-7.8-15.3-10.3-5.9-2.5-12.1-3.8-18.7-3.8S261.1 5.5 255.3 8c-5.9 2.5-10.9 5.9-15.3 10.3-4.3 4.3-7.8 9.4-10.3 15.3-2.5 5.9-3.8 12.1-3.8 18.7s1.3 12.8 3.8 18.6c2.5 5.9 5.9 10.9 10.3 15.3 4.3 4.3 9.4 7.8 15.3 10.3 5.8 2.5 12.1 3.8 18.6 3.8 6.6 0 12.8-1.3 18.7-3.8 5.8-2.5 10.9-5.9 15.3-10.3 4.3-4.3 7.8-9.4 10.3-15.3 2.5-5.8 3.8-12.1 3.8-18.6 0-6.6-1.3-12.9-3.8-18.7zm-26.5 26.1c-1 2.3-2.4 4.4-4.1 6.1-1.7 1.7-3.8 3.1-6.1 4.1-2.3 1-4.8 1.5-7.5 1.5s-5.1-.5-7.5-1.5c-2.3-1-4.4-2.4-6.1-4.1-1.7-1.7-3.1-3.8-4.1-6.1-1-2.3-1.5-4.8-1.5-7.5s.5-5.1 1.5-7.5c1-2.3 2.4-4.4 4.1-6.1 1.7-1.7 3.8-3.1 6.1-4.1s4.8-1.5 7.5-1.5 5.1.5 7.5 1.5c2.3 1 4.4 2.4 6.1 4.1 1.7 1.7 3.1 3.8 4.1 6.1 1 2.3 1.5 4.8 1.5 7.5s-.5 5.2-1.5 7.5zM216.7 33.6c-2.5-5.8-5.9-10.9-10.3-15.3-4.3-4.3-9.4-7.8-15.2-10.3-5.9-2.5-12.1-3.8-18.7-3.8S159.7 5.5 153.9 8c-5.9 2.5-10.9 5.9-15.3 10.3-4.3 4.3-7.8 9.4-10.3 15.3-2.5 5.9-3.8 12.1-3.8 18.7s1.3 12.8 3.8 18.6c2.5 5.9 5.9 10.9 10.3 15.3 4.3 4.3 9.4 7.8 15.3 10.3 5.8 2.5 12.1 3.8 18.6 3.8 6.6 0 12.8-1.3 18.7-3.8 5.8-2.5 10.9-5.9 15.3-10.3 4.3-4.3 7.8-9.4 10.3-15.3 2.5-5.8 3.8-12.1 3.8-18.6-.1-6.6-1.3-12.9-3.9-18.7zm-26.5 26.1c-1 2.3-2.4 4.4-4.1 6.1-1.7 1.7-3.8 3.1-6.1 4.1-2.3 1-4.8 1.5-7.5 1.5s-5.1-.5-7.5-1.5c-2.3-1-4.4-2.4-6.1-4.1-1.7-1.7-3.1-3.8-4.1-6.1-1-2.3-1.5-4.8-1.5-7.5s.5-5.1 1.5-7.5c1-2.3 2.4-4.4 4.1-6.1 1.7-1.7 3.8-3.1 6.1-4.1 2.3-1 4.8-1.5 7.5-1.5s5.1.5 7.5 1.5 4.4 2.4 6.1 4.1c1.7 1.7 3.1 3.8 4.1 6.1 1 2.3 1.5 4.8 1.5 7.5s-.5 5.2-1.5 7.5z"/></g><g><path class="st21" d="M410.7 28.9c-2.4-5.7-5.9-10.5-10.6-14.3-4.6-3.8-10.3-6.7-17-8.6-6.7-1.9-14.4-2.9-23-2.9h-25.4v91.5h25.4c8.6 0 16.2-1 23-2.9 6.7-2 12.4-4.9 17-8.7 4.6-3.8 8.1-8.6 10.6-14.3 2.4-5.7 3.6-12.3 3.6-19.8 0-7.6-1.2-14.2-3.6-20zm-30.8 34.7c-3.7 3.2-9.1 4.9-15.9 4.9V29.2c6.9 0 12.2 1.6 15.9 4.8 3.7 3.2 5.6 8.1 5.6 14.8 0 6.6-1.9 11.6-5.6 14.8zM425.8 3.1H455v31.1h16.3V3.1h29.4v91.5h-29.4V60.7H455v33.9h-29.2zM517.1 3H571v24h-24.7v10.2h24.3v22.7h-24.3v10.6H572v24h-54.9zM636.1 2.9h-21.9l-34.7 91.5h28.8l3-8.2H639l3 8.2h28.8L636.1 2.9zm-17.1 63l6.2-16 6.2 16H619zM755.6 28.9c-2.4-5.7-5.9-10.5-10.6-14.3-4.6-3.8-10.3-6.7-17-8.6-6.7-1.9-14.4-2.9-23-2.9h-25.4v91.5H705c8.6 0 16.2-1 23-2.9 6.7-2 12.4-4.9 17-8.7 4.6-3.8 8.1-8.6 10.6-14.3 2.4-5.7 3.6-12.3 3.6-19.8 0-7.6-1.2-14.2-3.6-20zm-30.8 34.7c-3.7 3.2-9.1 4.9-15.9 4.9V29.2c6.9 0 12.2 1.6 15.9 4.8 3.7 3.2 5.6 8.1 5.6 14.8 0 6.6-1.9 11.6-5.6 14.8zM7 3h31l10.6 32L59.1 3h20l10.6 32 10.6-32h31l-30.2 91.5H78.3l-9.2-27.7-9.2 27.7H37.2zM220.2 30.2c-2.5-5.8-5.9-10.9-10.3-15.3-4.3-4.3-9.4-7.8-15.3-10.3-5.9-2.5-12.1-3.8-18.7-3.8s-12.8 1.3-18.6 3.8c-5.9 2.5-10.9 5.9-15.3 10.3-4.3 4.3-7.8 9.4-10.3 15.3-2.5 5.9-3.8 12.1-3.8 18.7s1.3 12.8 3.8 18.6c2.5 5.9 5.9 10.9 10.3 15.3 4.3 4.3 9.4 7.8 15.3 10.3 5.8 2.5 12.1 3.8 18.6 3.8 6.6 0 12.8-1.3 18.7-3.8 5.8-2.5 10.9-5.9 15.3-10.3 4.3-4.3 7.8-9.4 10.3-15.3 2.5-5.8 3.8-12.1 3.8-18.6 0-6.6-1.3-12.9-3.8-18.7zm-26.5 26.1c-1 2.3-2.4 4.4-4.1 6.1-1.7 1.7-3.8 3.1-6.1 4.1-2.3 1-4.8 1.5-7.5 1.5s-5.1-.5-7.5-1.5c-2.3-1-4.4-2.4-6.1-4.1-1.7-1.7-3.1-3.8-4.1-6.1-1-2.3-1.5-4.8-1.5-7.5s.5-5.1 1.5-7.5c1-2.3 2.4-4.4 4.1-6.1 1.7-1.7 3.8-3.1 6.1-4.1 2.3-1 4.8-1.5 7.5-1.5s5.1.5 7.5 1.5c2.3 1 4.4 2.4 6.1 4.1 1.7 1.7 3.1 3.8 4.1 6.1 1 2.3 1.5 4.8 1.5 7.5s-.5 5.2-1.5 7.5zM321.7 30c-2.5-5.8-5.9-10.9-10.3-15.3-4.3-4.3-9.4-7.8-15.3-10.3C290.2 1.9 284 .6 277.4.6s-12.8 1.3-18.6 3.8c-5.9 2.5-10.9 5.9-15.3 10.3-4.3 4.3-7.8 9.4-10.3 15.3-2.5 5.9-3.8 12.1-3.8 18.7s1.3 12.8 3.8 18.6c2.5 5.9 5.9 10.9 10.3 15.3 4.3 4.3 9.4 7.8 15.3 10.3 5.8 2.5 12.1 3.8 18.6 3.8 6.6 0 12.8-1.3 18.7-3.8 5.8-2.5 10.9-5.9 15.3-10.3 4.3-4.3 7.8-9.4 10.3-15.3 2.5-5.8 3.8-12.1 3.8-18.6 0-6.6-1.3-12.8-3.8-18.7zm-26.5 26.2c-1 2.3-2.4 4.4-4.1 6.1-1.7 1.7-3.8 3.1-6.1 4.1-2.3 1-4.8 1.5-7.5 1.5s-5.1-.5-7.5-1.5c-2.3-1-4.4-2.4-6.1-4.1-1.7-1.7-3.1-3.8-4.1-6.1-1-2.3-1.5-4.8-1.5-7.5s.5-5.1 1.5-7.5c1-2.3 2.4-4.4 4.1-6.1 1.7-1.7 3.8-3.1 6.1-4.1 2.3-1 4.8-1.5 7.5-1.5s5.1.5 7.5 1.5c2.3 1 4.4 2.4 6.1 4.1 1.7 1.7 3.1 3.8 4.1 6.1 1 2.3 1.5 4.8 1.5 7.5 0 2.6-.5 5.1-1.5 7.5z"/></g><g><path class="st6" d="M87.1 83.5l-18-56.1-17.9 56.1-4-.1-22.9-69.3 4.1-.1 20.8 62.9 19.9-62.4 20 62.5 20.6-63.1 4.1.1-22.7 69.5zM650.6 83.4h4.2L626.7 14l-4.2-.1-27 69.5 4.2.1 2.5-6.4H648l2.6 6.3zm-46.9-10.2l20.9-53.8 21.8 53.8h-42.7zM709.5 84.7h-18.3V13h18.3c5.7 0 10.9.7 15.4 2.2 4.6 1.5 8.5 3.8 11.7 6.8 3.2 3 5.6 6.9 7.3 11.3 1.6 4.4 2.5 9.6 2.5 15.4 0 5.8-.8 10.9-2.5 15.4s-4.1 8.3-7.3 11.4c-3.2 3-7.1 5.4-11.7 6.9-4.5 1.5-9.7 2.3-15.4 2.3zm-14.3-4h14.3c5.3 0 10-.7 14.1-2.1 4-1.4 7.5-3.4 10.2-6 2.7-2.6 4.9-5.9 6.3-9.9 1.5-4 2.2-8.7 2.2-14 0-5.3-.7-10-2.2-14-1.4-3.9-3.6-7.3-6.3-9.9-2.7-2.6-6.2-4.6-10.2-6-4.1-1.4-8.9-2-14.1-2h-14.3v63.9zM561.8 17.6v-3.9h-30.6v.2h-.4v69.9h.2v.2h30.7v-3.9h-27V50.5h27v-3.9h-27v-29zM483.2 14.8v31.6H443V14.8h-3.5v69.9h3.5V50.3h40.2v34.4h4V14.8zM365.3 84.7H347V13h18.3c5.7 0 10.9.7 15.4 2.2 4.6 1.5 8.5 3.8 11.7 6.8 3.2 3 5.6 6.9 7.3 11.3 1.6 4.4 2.5 9.6 2.5 15.4 0 5.8-.8 10.9-2.5 15.4-1.6 4.5-4.1 8.3-7.3 11.4-3.2 3-7.1 5.4-11.7 6.9-4.5 1.5-9.7 2.3-15.4 2.3zm-14.3-4h14.3c5.3 0 10-.7 14.1-2.1 4-1.4 7.4-3.4 10.2-6 2.7-2.6 4.9-5.9 6.3-9.9 1.5-4 2.2-8.7 2.2-14 0-5.3-.7-10-2.2-14-1.4-3.9-3.6-7.3-6.3-9.9-2.7-2.6-6.2-4.6-10.2-6-4.1-1.4-8.9-2-14.1-2H351v63.9zM175.7 85.4c-20.3 0-36.7-16.5-36.7-36.7S155.4 12 175.7 12s36.7 16.5 36.7 36.7-16.5 36.7-36.7 36.7zm0-69.5c-18.1 0-32.8 14.7-32.8 32.8s14.7 32.8 32.8 32.8 32.8-14.7 32.8-32.8-14.7-32.8-32.8-32.8zM277.1 85.3c-20.3 0-36.7-16.5-36.7-36.7s16.5-36.7 36.7-36.7c20.3 0 36.7 16.5 36.7 36.7s-16.4 36.7-36.7 36.7zm0-69.6c-18.1 0-32.8 14.7-32.8 32.8s14.7 32.8 32.8 32.8c18.1 0 32.8-14.7 32.8-32.8s-14.7-32.8-32.8-32.8z"/></g><g class="st22"><path class="st23" d="M410.7 28.9c-2.4-5.7-5.9-10.5-10.6-14.3-4.6-3.8-10.3-6.7-17-8.6-6.7-1.9-14.4-2.9-23-2.9h-25.4v45.3h79.5c.1-7.3-1.1-13.8-3.5-19.5zM364 48.4V29.2c6.9 0 12.2 1.6 15.9 4.8 3.7 3.1 5.6 8 5.6 14.5l-21.5-.1zM425.8 3.1H455v31.1h16.3V3.1h29.4v45.3h-74.9zM517.1 3H571v24h-24.7v10.2h24.3v11.2h-53.5zM636.1 2.9h-21.9l-17.3 45.6h56.5L636.1 2.9zM7 3h31l10.6 32L59.1 3h20l10.6 32 10.6-32h31l-15 45.4H22zM220.2 30.2c-2.5-5.8-5.9-10.9-10.3-15.3-4.3-4.3-9.4-7.8-15.3-10.3-5.9-2.5-12.1-3.8-18.7-3.8s-12.8 1.3-18.6 3.8c-5.9 2.5-10.9 5.9-15.3 10.3-4.3 4.3-7.8 9.4-10.3 15.3-2.5 5.7-3.7 11.8-3.8 18.2h96c0-6.4-1.2-12.5-3.7-18.2zm-63.4 18.2c0-2.5.5-4.9 1.5-7.1 1-2.3 2.4-4.4 4.1-6.1 1.7-1.7 3.8-3.1 6.1-4.1 2.3-1 4.8-1.5 7.5-1.5s5.1.5 7.5 1.5c2.3 1 4.4 2.4 6.1 4.1 1.7 1.7 3.1 3.8 4.1 6.1 1 2.2 1.5 4.6 1.5 7.1h-38.4zM321.4 30.2c-2.5-5.8-5.9-10.9-10.3-15.3-4.3-4.3-9.4-7.8-15.3-10.3-5.9-2.5-12.1-3.8-18.7-3.8s-12.8 1.3-18.6 3.8c-5.9 2.5-10.9 5.9-15.3 10.3-4.3 4.3-7.8 9.4-10.3 15.3-2.5 5.7-3.7 11.8-3.8 18.2h96c0-6.4-1.3-12.5-3.7-18.2zm-63.5 18.2c0-2.5.5-4.9 1.5-7.1 1-2.3 2.4-4.4 4.1-6.1 1.7-1.7 3.8-3.1 6.1-4.1 2.3-1 4.8-1.5 7.5-1.5s5.1.5 7.5 1.5c2.3 1 4.4 2.4 6.1 4.1 1.7 1.7 3.1 3.8 4.1 6.1 1 2.2 1.5 4.6 1.5 7.1h-38.4zM755.6 28.9c-2.4-5.7-5.9-10.5-10.6-14.3-4.6-3.8-10.3-6.7-17-8.6-6.7-1.9-14.4-2.9-23-2.9h-25.4v45.3h79.5c.1-7.3-1.1-13.8-3.5-19.5zm-46.7 19.5V29.2c6.9 0 12.2 1.6 15.9 4.8 3.7 3.1 5.6 8 5.6 14.5l-21.5-.1z"/></g></svg>